<?xml version="1.0" encoding="UTF-8"?>
<svg width="24px" height="24px" viewBox="0 0 24 24" version="1.1" xmlns="http://www.w3.org/2000/svg" xmlns:xlink="http://www.w3.org/1999/xlink">
    <g id="audio" fill="#384248">
        <path d="M2,8.41111111 L2,15.0777778 L6.44444444,15.0777778 L12,20.6333333 L12,2.85555556 L6.44444444,8.41111111 L2,8.41111111 Z M9.77777778,8.22222222 L9.77777778,15.2666667 L7.36666667,12.8555556 L4.22222222,12.8555556 L4.22222222,10.6333333 L7.36666667,10.6333333 L9.77777778,8.22222222 Z M17,11.7444444 C17,9.77777778 15.8666667,8.08888889 14.2222222,7.26666667 L14.2222222,16.2111111 C15.8666667,15.4 17,13.7111111 17,11.7444444 Z M14.2222222,2 L14.2222222,4.28888889 C17.4333333,5.24444444 19.7777778,8.22222222 19.7777778,11.7444444 C19.7777778,15.2666667 17.4333333,18.2444444 14.2222222,19.2 L14.2222222,21.4888889 C18.6777778,20.4777778 22,16.5 22,11.7444444 C22,6.98888889 18.6777778,3.01111111 14.2222222,2 Z"></path>
    </g>
</svg>