<?xml version="1.0" encoding="UTF-8"?>
<svg width="24px" height="24px" viewBox="0 0 24 24" version="1.1" xmlns="http://www.w3.org/2000/svg" xmlns:xlink="http://www.w3.org/1999/xlink">
   <g id="collection" fill="#384248">
        <path d="M19.5,2 L4.5,2 C3.125,2 2,3.125 2,4.5 L2,19.5 C2,20.875 3.125,22 4.5,22 L19.5,22 C20.875,22 22,20.875 22,19.5 L22,4.5 C22,3.125 20.875,2 19.5,2 Z M16,4 L16,12 L14.5,10.9645731 L13,12 L13,4 L16,4 Z M20,20 L4,20 L4.01944719,4 L11,4 L11,16 L14.5,13 L18,16 L18,4 L20,4 L20,20 Z"></path>
    </g>
</svg>