<svg width="242" height="242" viewBox="0 0 242 242" xmlns="http://www.w3.org/2000/svg"><title>container_ordered</title><g fill="none" fill-rule="evenodd"><g fill="#384248"><path d="M210.828 67.107c-.85-1.8-2.52-4.79-5.074-8.576a104.855 104.855 0 0 0-15.729-18.294c-18.01-16.648-41.063-26.66-69.448-26.66-61.17 0-106.669 47.833-106.669 104.544 0 57.564 46.612 110.51 105.977 110.51 27.689 0 50.311-8.85 68.122-23.593 6.243-5.167 11.442-10.707 15.657-16.26 2.562-3.377 4.248-6.052 5.115-7.674a4.864 4.864 0 0 0-1.985-6.577 4.842 4.842 0 0 0-6.561 1.99c-.635 1.188-2.05 3.43-4.285 6.377-3.782 4.985-8.474 9.983-14.114 14.651-16.139 13.36-36.612 21.37-61.95 21.37-53.72 0-96.281-48.345-96.281-100.794 0-51.445 41.265-94.827 96.974-94.827 25.813 0 46.574 9.017 62.876 24.087a95.202 95.202 0 0 1 14.27 16.595c2.263 3.351 3.693 5.912 4.34 7.283a4.842 4.842 0 0 0 6.453 2.317 4.864 4.864 0 0 0 2.312-6.47z"/><g transform="translate(101.16 -.364)"><ellipse cx="19.389" cy="222.528" rx="19.389" ry="19.435"/><ellipse cx="19.389" cy="20.407" rx="19.389" ry="19.435"/></g><ellipse cx="19.389" cy="19.528" rx="19.389" ry="19.435" transform="rotate(90 -31.233 70.482)"/><ellipse cx="19.389" cy="19.528" rx="19.389" ry="19.435" transform="rotate(60 -105.419 107.567)"/><g transform="rotate(150 70.018 134.839)"><ellipse cx="19.389" cy="222.528" rx="19.389" ry="19.435"/><ellipse cx="19.389" cy="20.407" rx="19.389" ry="19.435"/></g><g transform="rotate(30 70.648 310.053)"><ellipse cx="19.389" cy="222.528" rx="19.389" ry="19.435"/><ellipse cx="19.389" cy="20.407" rx="19.389" ry="19.435"/></g><ellipse cx="19.389" cy="19.528" rx="19.389" ry="19.435" transform="rotate(120 11.574 49.046)"/></g><path d="M196.86 94.667h-23.012M214.908 122.667h-41.06M237.469 151.667h-63.621" stroke="#384248" stroke-width="8" stroke-linecap="square"/></g></svg>