<svg width="227" height="217" viewBox="0 0 227 217" xmlns="http://www.w3.org/2000/svg"><title>video</title><g fill="#384248" fill-rule="evenodd"><path d="M198.828 53.923c-.857-1.814-2.544-4.826-5.123-8.639a105.691 105.691 0 0 0-15.881-18.428C159.64 10.086 136.364 0 107.703 0 45.94 0 0 48.185 0 105.31c0 57.987 47.064 111.321 107.004 111.321 27.957 0 50.8-8.916 68.783-23.766 6.303-5.205 11.553-10.786 15.808-16.38 2.587-3.401 4.29-6.095 5.165-7.73a4.894 4.894 0 0 0-8.63-4.62c-.64 1.196-2.068 3.456-4.326 6.424-3.819 5.02-8.556 10.056-14.25 14.758-16.296 13.457-36.968 21.525-62.55 21.525-54.243 0-97.215-48.698-97.215-101.531 0-51.822 41.664-95.522 97.914-95.522 26.063 0 47.025 9.083 63.485 24.263a95.962 95.962 0 0 1 14.41 16.717c2.283 3.376 3.727 5.955 4.38 7.337a4.894 4.894 0 0 0 8.85-4.183z"/><path d="M164.111 66.774c-3.69-2.307-8.478.346-8.478 4.698v74.807c0 4.352 4.788 7.006 8.478 4.7l59.846-37.404c3.472-2.17 3.472-7.228 0-9.398L164.11 66.774zm46.454 42.102l-43.85 27.405v-54.81l43.85 27.405z"/></g></svg>