<?xml version="1.0" encoding="UTF-8" standalone="no"?>
<svg width="232px" height="217px" viewBox="0 0 232 217" version="1.1" xmlns="http://www.w3.org/2000/svg" xmlns:xlink="http://www.w3.org/1999/xlink">
    <!-- Generator: Sketch 41 (35326) - http://www.bohemiancoding.com/sketch -->
    <title>picture</title>
    <desc>Created with Sketch.</desc>
    <defs></defs>
    <g id="Page-1" stroke="none" stroke-width="1" fill="none" fill-rule="evenodd">
        <g id="Artboard" transform="translate(-20.000000, -19.000000)" fill="#384248">
            <g id="image" transform="translate(20.000000, 19.000000)">
                <path d="M198.828285,53.9229685 C197.971142,52.1093264 196.2844,49.0972639 193.704912,45.2843358 C189.450426,38.9954699 184.179606,32.7179391 177.82389,26.8564356 C159.640032,10.0865327 136.363067,1.42108547e-14 107.702744,1.42108547e-14 C45.940167,1.42108547e-14 2.07313697e-14,48.1847786 1.42108547e-14,105.310772 C1.42108547e-14,163.296984 47.0637038,216.630952 107.003682,216.630952 C134.96132,216.630952 157.803053,207.715265 175.786651,192.864713 C182.089925,187.659575 187.339571,182.079426 191.595009,176.484866 C194.181995,173.083793 195.884694,170.38953 196.759729,168.755392 C198.035716,166.372471 197.138369,163.406339 194.755447,162.130352 C192.372526,160.854364 189.406394,161.751711 188.130407,164.134633 C187.489667,165.331222 186.06172,167.590733 183.804096,170.558797 C179.985182,175.579465 175.248322,180.614545 169.553838,185.316954 C153.258128,198.773677 132.586406,206.842355 107.003682,206.842355 C52.7612613,206.842355 9.78859627,158.144472 9.78859627,105.310772 C9.78859627,53.4891834 51.4534608,9.78859627 107.702744,9.78859627 C133.765609,9.78859627 154.727744,18.8720507 171.187727,34.0521263 C176.957356,39.3731154 181.746377,45.0768264 185.597332,50.7692026 C187.88111,54.1450196 189.325441,56.7242034 189.978282,58.1055591 C191.133273,60.5494199 194.050718,61.5942558 196.494579,60.4392653 C198.93844,59.2842748 199.983276,56.3668293 198.828285,53.9229685 Z" id="Path-2-Copy-6"></path>
                <path d="M160.275984,73.4542926 L179.445663,98.678252 L185.880492,93.7879174 L162.935373,63.5961362 C161.162605,61.2634827 157.574327,61.5335966 156.170748,64.1053551 L128.601947,114.619275 C127.132243,117.312194 129.081285,120.596337 132.149158,120.596337 L167.878324,120.596337 L167.878324,112.51411 L138.958448,112.51411 L160.275984,73.4542926 Z" id="Stroke-2124"></path>
                <path d="M223.726756,120.170677 C223.726756,131.708313 212.112903,141.386523 197.459517,141.386523 C182.800599,141.386523 171.192279,131.711014 171.192279,120.170677 C171.192279,108.63034 182.800599,98.9548303 197.459517,98.9548303 C212.112903,98.9548303 223.726756,108.63304 223.726756,120.170677 Z M231.808983,120.170677 C231.808983,103.810197 216.283871,90.8726032 197.459517,90.8726032 C178.629359,90.8726032 163.110052,103.807912 163.110052,120.170677 C163.110052,136.533441 178.629359,149.46875 197.459517,149.46875 C216.283871,149.46875 231.808983,136.531157 231.808983,120.170677 Z" id="Stroke-2125"></path>
            </g>
        </g>
    </g>
</svg>