<svg width="232" height="217" viewBox="0 0 232 217" xmlns="http://www.w3.org/2000/svg"><title>picture</title><g fill="#384248" fill-rule="evenodd"><path d="M198.828 53.923c-.857-1.814-2.544-4.826-5.123-8.639a105.691 105.691 0 0 0-15.881-18.428C159.64 10.086 136.364 0 107.703 0 45.94 0 0 48.185 0 105.31c0 57.987 47.064 111.321 107.004 111.321 27.957 0 50.8-8.916 68.783-23.766 6.303-5.205 11.553-10.786 15.808-16.38 2.587-3.401 4.29-6.095 5.165-7.73a4.894 4.894 0 0 0-8.63-4.62c-.64 1.196-2.068 3.456-4.326 6.424-3.819 5.02-8.556 10.056-14.25 14.758-16.296 13.457-36.968 21.525-62.55 21.525-54.243 0-97.215-48.698-97.215-101.531 0-51.822 41.664-95.522 97.914-95.522 26.063 0 47.025 9.083 63.485 24.263a95.962 95.962 0 0 1 14.41 16.717c2.283 3.376 3.727 5.955 4.38 7.337a4.894 4.894 0 0 0 8.85-4.183z"/><path d="M160.276 73.454l19.17 25.224 6.434-4.89-22.945-30.192c-1.772-2.333-5.36-2.062-6.764.51l-27.57 50.513c-1.469 2.693.48 5.977 3.548 5.977h35.73v-8.082h-28.92l21.317-39.06z"/><path d="M223.727 120.17c0 11.538-11.614 21.217-26.267 21.217-14.66 0-26.268-9.676-26.268-21.216 0-11.54 11.609-21.216 26.268-21.216 14.653 0 26.267 9.678 26.267 21.216zm8.082 0c0-16.36-15.525-29.297-34.35-29.297-18.83 0-34.349 12.935-34.349 29.298 0 16.362 15.52 29.298 34.35 29.298 18.824 0 34.349-12.938 34.349-29.298z"/></g></svg>