<svg width="232" height="217" viewBox="0 0 232 217" xmlns="http://www.w3.org/2000/svg"><title>audio</title><g fill="#384248" fill-rule="evenodd"><path d="M198.828 53.923c-.857-1.814-2.544-4.826-5.123-8.639a105.691 105.691 0 0 0-15.881-18.428C159.64 10.086 136.364 0 107.703 0 45.94 0 0 48.185 0 105.31c0 57.987 47.064 111.321 107.004 111.321 27.957 0 50.8-8.916 68.783-23.766 6.303-5.205 11.553-10.786 15.808-16.38 2.587-3.401 4.29-6.095 5.165-7.73a4.894 4.894 0 0 0-8.63-4.62c-.64 1.196-2.068 3.456-4.326 6.424-3.819 5.02-8.556 10.056-14.25 14.758-16.296 13.457-36.968 21.525-62.55 21.525-54.243 0-97.215-48.698-97.215-101.531 0-51.822 41.664-95.522 97.914-95.522 26.063 0 47.025 9.083 63.485 24.263a95.962 95.962 0 0 1 14.41 16.717c2.283 3.376 3.727 5.955 4.38 7.337a4.894 4.894 0 0 0 8.85-4.183z"/><path d="M199.617 136.83c0 4.971-6.44 9.605-14.918 9.605-8.477 0-14.917-4.634-14.917-9.604 0-4.966 6.444-9.604 14.917-9.604 8.474 0 14.918 4.638 14.918 9.604zm8.09 0c0-10.114-10.53-17.694-23.008-17.694-12.477 0-23.008 7.58-23.008 17.695 0 10.12 10.527 17.694 23.008 17.694s23.009-7.574 23.009-17.694z"/><path d="M225.22 95.334a4.045 4.045 0 1 0 5.38-6.043l-22.756-20.26c-2.608-2.321-6.736-.47-6.736 3.022v56.669a4.045 4.045 0 0 0 8.091 0v-47.65l16.02 14.262z"/></g></svg>