<?xml version="1.0" encoding="UTF-8" standalone="no"?>
<svg width="227px" height="228px" viewBox="0 0 227 228" version="1.1" xmlns="http://www.w3.org/2000/svg" xmlns:xlink="http://www.w3.org/1999/xlink">
    <!-- Generator: Sketch 41 (35326) - http://www.bohemiancoding.com/sketch -->
    <title>domain</title>
    <desc>Created with Sketch.</desc>
    <defs></defs>
    <g id="Page-1" stroke="none" stroke-width="1" fill="none" fill-rule="evenodd">
        <g id="Artboard" transform="translate(-14.000000, -13.000000)" fill="#384248">
            <g id="domain" transform="translate(14.000000, 13.000000)">
                <g id="Container-A">
                    <path d="M161.520243,72.4552861 C210.521786,122.204765 229.869761,189.600929 208.624626,210.473226 C187.561071,231.153412 116.74715,208.914375 67.5238816,158.952752 C18.3054257,108.991968 -2.80583094,37.8993009 18.2636534,17.2090128 C38.8306147,-2.99701282 111.676599,21.863981 161.520243,72.4552861 Z M60.4356859,165.912659 C112.999865,219.265307 189.407938,243.261181 215.596958,217.548817 C241.920293,191.687438 220.948265,118.634096 168.60875,65.4956953 C115.408289,11.4972207 37.1042493,-15.226507 11.2909548,10.1337826 C-14.9016329,35.8549713 7.87644647,112.560704 60.4356859,165.912659 Z" id="Stroke-8227"></path>
                    <path d="M161.626288,164.515681 C215.34557,109.976454 241.132923,35.2163909 215.596524,10.1281376 C189.599558,-15.3956683 113.983728,9.41156584 61.1016459,63.0868856 C8.32167765,116.662899 -14.7679031,191.953732 11.2901538,217.542812 C37.0966955,242.896467 108.415404,218.524735 161.626288,164.515681 Z M68.1898417,70.0467921 C117.725062,19.7685374 187.815689,-3.22604737 208.624192,17.2037278 C228.8194,37.0445242 204.880911,106.444547 154.537781,157.556091 C104.684073,208.15761 38.8210305,230.664978 18.2628524,210.467582 C-2.62817339,189.95254 18.7544467,120.227788 68.1898417,70.0467921 Z" id="Stroke-8228"></path>
                    <path d="M110.790045,145.545395 C94.3259845,145.545395 80.9638488,132.220414 80.9638488,115.768901 C80.9638488,99.332276 94.3259845,85.9924067 110.790045,85.9924067 C127.254105,85.9924067 140.616241,99.332276 140.616241,115.768901 C140.616241,132.220414 127.254105,145.545395 110.790045,145.545395 Z" id="Stroke-8229"></path>
                </g>
            </g>
        </g>
    </g>
</svg>