<svg width="227" height="228" viewBox="0 0 227 228" xmlns="http://www.w3.org/2000/svg"><title>domain</title><g fill="#384248" fill-rule="evenodd"><path d="M161.52 72.455c49.002 49.75 68.35 117.146 47.105 138.018-21.064 20.68-91.878-1.559-141.101-51.52-49.219-49.961-70.33-121.054-49.26-141.744C38.83-2.997 111.677 21.864 161.52 72.455zM60.436 165.913C113 219.265 189.408 243.26 215.597 217.549c26.323-25.862 5.351-98.915-46.988-152.053-53.2-53.999-131.505-80.723-157.318-55.362-26.193 25.721-3.415 102.427 49.145 155.779z"/><path d="M161.626 164.516c53.72-54.54 79.507-129.3 53.97-154.388C189.6-15.396 113.985 9.412 61.103 63.087c-52.78 53.576-75.87 128.867-49.812 154.456 25.807 25.353 97.125.982 150.336-53.027zM68.19 70.046C117.725 19.77 187.816-3.225 208.624 17.205c20.195 19.84-3.743 89.24-54.086 140.352-49.854 50.602-115.717 73.109-136.275 52.912-20.891-20.515.491-90.24 49.927-140.421z"/><path d="M110.79 145.545c-16.464 0-29.826-13.325-29.826-29.776 0-16.437 13.362-29.777 29.826-29.777s29.826 13.34 29.826 29.777c0 16.451-13.362 29.776-29.826 29.776z"/></g></svg>