<?xml version="1.0" encoding="UTF-8" standalone="no"?>
<svg width="236px" height="217px" viewBox="0 0 236 217" version="1.1" xmlns="http://www.w3.org/2000/svg" xmlns:xlink="http://www.w3.org/1999/xlink">
    <!-- Generator: Sketch 41 (35326) - http://www.bohemiancoding.com/sketch -->
    <title>file</title>
    <desc>Created with Sketch.</desc>
    <defs></defs>
    <g id="Page-1" stroke="none" stroke-width="1" fill="none" fill-rule="evenodd">
        <g id="Artboard" transform="translate(-20.000000, -19.000000)" fill="#384248">
            <g id="file" transform="translate(20.000000, 19.000000)">
                <path d="M198.828285,53.9229685 C197.971142,52.1093264 196.2844,49.0972639 193.704912,45.2843358 C189.450426,38.9954699 184.179606,32.7179391 177.82389,26.8564356 C159.640032,10.0865327 136.363067,1.42108547e-14 107.702744,1.42108547e-14 C45.940167,1.42108547e-14 2.07313697e-14,48.1847786 1.42108547e-14,105.310772 C1.42108547e-14,163.296984 47.0637038,216.630952 107.003682,216.630952 C134.96132,216.630952 157.803053,207.715265 175.786651,192.864713 C182.089925,187.659575 187.339571,182.079426 191.595009,176.484866 C194.181995,173.083793 195.884694,170.38953 196.759729,168.755392 C198.035716,166.372471 197.138369,163.406339 194.755447,162.130352 C192.372526,160.854364 189.406394,161.751711 188.130407,164.134633 C187.489667,165.331222 186.06172,167.590733 183.804096,170.558797 C179.985182,175.579465 175.248322,180.614545 169.553838,185.316954 C153.258128,198.773677 132.586406,206.842355 107.003682,206.842355 C52.7612613,206.842355 9.78859627,158.144472 9.78859627,105.310772 C9.78859627,53.4891834 51.4534608,9.78859627 107.702744,9.78859627 C133.765609,9.78859627 154.727744,18.8720507 171.187727,34.0521263 C176.957356,39.3731154 181.746377,45.0768264 185.597332,50.7692026 C187.88111,54.1450196 189.325441,56.7242034 189.978282,58.1055591 C191.133273,60.5494199 194.050718,61.5942558 196.494579,60.4392653 C198.93844,59.2842748 199.983276,56.3668293 198.828285,53.9229685 Z" id="Path-2-Copy-6"></path>
                <path d="M176.734557,83.8825084 C178.595922,82.0792756 178.595922,79.1556575 176.734557,77.3524246 C174.873192,75.5491918 171.855324,75.5491918 169.993959,77.3524246 L141.396024,105.057224 C139.534659,106.860457 139.534659,109.784075 141.396024,111.587308 L169.993959,139.292107 C171.855324,141.095339 174.873192,141.095339 176.734557,139.292107 C178.595922,137.488874 178.595922,134.565256 176.734557,132.762023 L151.506921,108.322266 L176.734557,83.8825084 Z" id="Stroke-1487"></path>
                <path d="M198.396024,132.762023 C196.534659,134.565256 196.534659,137.488874 198.396024,139.292107 C200.257388,141.095339 203.275257,141.095339 205.136622,139.292107 L233.734557,111.587308 C235.595922,109.784075 235.595922,106.860457 233.734557,105.057224 L205.136622,77.3524246 C203.275257,75.5491918 200.257388,75.5491918 198.396024,77.3524246 C196.534659,79.1556575 196.534659,82.0792756 198.396024,83.8825084 L223.62366,108.322266 L198.396024,132.762023 Z" id="Stroke-1488"></path>
            </g>
        </g>
    </g>
</svg>