<svg width="236" height="217" viewBox="0 0 236 217" xmlns="http://www.w3.org/2000/svg"><title>file</title><g fill="#384248" fill-rule="evenodd"><path d="M198.828 53.923c-.857-1.814-2.544-4.826-5.123-8.639a105.691 105.691 0 0 0-15.881-18.428C159.64 10.086 136.364 0 107.703 0 45.94 0 0 48.185 0 105.31c0 57.987 47.064 111.321 107.004 111.321 27.957 0 50.8-8.916 68.783-23.766 6.303-5.205 11.553-10.786 15.808-16.38 2.587-3.401 4.29-6.095 5.165-7.73a4.894 4.894 0 0 0-8.63-4.62c-.64 1.196-2.068 3.456-4.326 6.424-3.819 5.02-8.556 10.056-14.25 14.758-16.296 13.457-36.968 21.525-62.55 21.525-54.243 0-97.215-48.698-97.215-101.531 0-51.822 41.664-95.522 97.914-95.522 26.063 0 47.025 9.083 63.485 24.263a95.962 95.962 0 0 1 14.41 16.717c2.283 3.376 3.727 5.955 4.38 7.337a4.894 4.894 0 0 0 8.85-4.183z"/><path d="M176.735 83.883a4.516 4.516 0 0 0 0-6.53c-1.862-1.804-4.88-1.804-6.741 0l-28.598 27.704a4.516 4.516 0 0 0 0 6.53l28.598 27.705c1.861 1.803 4.88 1.803 6.74 0a4.516 4.516 0 0 0 0-6.53l-25.227-24.44 25.228-24.44zM198.396 132.762a4.516 4.516 0 0 0 0 6.53c1.861 1.803 4.88 1.803 6.74 0l28.599-27.705a4.516 4.516 0 0 0 0-6.53l-28.598-27.705c-1.862-1.803-4.88-1.803-6.741 0a4.516 4.516 0 0 0 0 6.53l25.228 24.44-25.228 24.44z"/></g></svg>