<?xml version="1.0" encoding="UTF-8"?>
<svg width="24px" height="24px" viewBox="0 0 24 24" version="1.1" xmlns="http://www.w3.org/2000/svg" xmlns:xlink="http://www.w3.org/1999/xlink">
    <g id="ordered-folder" fill="#384248">
        <path d="M22,7.32370884 L22,15.4218012 C22,16.2934163 21.2836556,17 20.4,17 L7.6,17 C6.7163444,17 6,16.2934163 6,15.4218012 L6,5.57819877 C6,4.70658365 6.7163444,4 7.6,4 L12,4 L14,6.00395475 L20.4,6.00395475 C21.2836556,6.00395475 22,6.45209373 22,7.32370884 Z M3.9764221,7.99669415 L3.9764221,18.9932992 L18.0058594,18.9932992 L18.0058594,21 L3.66666667,21 C2.74619208,21 2,20.3190126 2,19.3801286 L2,12.2466942 L2,7.99669415 L3.9764221,7.99669415 Z M8,6 L8,15 L20,15 L20,8 L13,8 L11.0026855,6 L8,6 Z"></path>
    </g>
</svg>