<?xml version="1.0" encoding="UTF-8" standalone="no"?>
<svg width="242px" height="242px" viewBox="0 0 242 242" version="1.1" xmlns="http://www.w3.org/2000/svg" xmlns:xlink="http://www.w3.org/1999/xlink">
    <!-- Generator: Sketch 41 (35326) - http://www.bohemiancoding.com/sketch -->
    <title>container_ordered</title>
    <desc>Created with Sketch.</desc>
    <defs></defs>
    <g id="Page-1" stroke="none" stroke-width="1" fill="none" fill-rule="evenodd">
        <g id="Artboard" transform="translate(-6.000000, -8.000000)">
            <g id="container_ordered" transform="translate(6.000000, 7.000000)">
                <g id="Container-D---labeled" stroke-width="1" fill-rule="evenodd" fill="#384248">
                    <g transform="translate(13.908381, 14.199317)" id="Path-2-Copy-5">
                        <path d="M196.919336,53.9075714 C196.070422,52.10712 194.399875,49.1169644 191.845153,45.331768 C187.631513,39.0886415 182.411299,32.8567675 176.116604,27.0378952 C158.107329,10.3899608 135.053846,0.376788172 106.66869,0.376788172 C45.4990957,0.376788172 6.05577538e-15,48.2111157 0,104.921628 C0,162.486102 46.6118455,215.432169 105.97634,215.432169 C133.665557,215.432169 156.287987,206.581326 174.098924,191.838783 C180.34168,186.671503 185.540925,181.131939 189.755506,175.578068 C192.317655,172.201731 194.004006,169.527064 194.87064,167.904811 C196.134376,165.539221 195.245644,162.594662 192.885601,161.327955 C190.525558,160.061248 187.587904,160.952069 186.324168,163.317659 C185.689579,164.505545 184.275342,166.748623 182.039393,169.6951 C178.257146,174.679252 173.565764,179.677711 167.925953,184.345919 C151.786697,197.704771 131.313445,205.714766 105.97634,205.714766 C52.2547007,205.714766 9.69461601,157.371065 9.69461601,104.921628 C9.69461601,53.4769412 50.9594564,10.0941913 106.66869,10.0941913 C132.481326,10.0941913 153.242203,19.1115812 169.544155,34.1812511 C175.258389,39.4635403 180.001432,45.1257679 183.815413,50.776743 C186.077264,54.1280075 187.507729,56.6884327 188.154302,58.0597417 C189.298203,60.4858282 192.187638,61.5230649 194.608036,60.3764747 C197.028433,59.2298845 198.063237,56.3336578 196.919336,53.9075714 Z"></path>
                    </g>
                    <g id="Group" transform="translate(101.159925, 0.636255)">
                        <ellipse id="Oval-2-Copy-7" cx="19.389232" cy="222.528473" rx="19.389232" ry="19.4348063"></ellipse>
                        <ellipse id="Oval-2-Copy-8" cx="19.389232" cy="20.406606" rx="19.389232" ry="19.4348063"></ellipse>
                    </g>
                    <g id="Group" transform="translate(19.749206, 122.215076) rotate(90.000000) translate(-19.749206, -122.215076) translate(0.249206, 102.715076)">
                        <ellipse id="Oval-2-Copy-7" cx="19.389232" cy="19.5279276" rx="19.389232" ry="19.4348063"></ellipse>
                    </g>
                    <g id="Group" transform="translate(33.309223, 172.716670) rotate(60.000000) translate(-33.309223, -172.716670) translate(13.809223, 153.216670)">
                        <ellipse id="Oval-2-Copy-7" cx="19.389232" cy="19.5279276" rx="19.389232" ry="19.4348063"></ellipse>
                    </g>
                    <g id="Group" transform="translate(120.687119, 122.564337) rotate(150.000000) translate(-120.687119, -122.564337) translate(101.187119, 1.564337)">
                        <ellipse id="Oval-2-Copy-7" cx="19.389232" cy="222.528473" rx="19.389232" ry="19.4348063"></ellipse>
                        <ellipse id="Oval-2-Copy-8" cx="19.389232" cy="20.406606" rx="19.389232" ry="19.4348063"></ellipse>
                    </g>
                    <g id="Group" transform="translate(120.878974, 121.754535) rotate(30.000000) translate(-120.878974, -121.754535) translate(101.378974, 0.754535)">
                        <ellipse id="Oval-2-Copy-7" cx="19.389232" cy="222.528473" rx="19.389232" ry="19.4348063"></ellipse>
                        <ellipse id="Oval-2-Copy-8" cx="19.389232" cy="20.406606" rx="19.389232" ry="19.4348063"></ellipse>
                    </g>
                    <g id="Group" transform="translate(33.198455, 71.683664) rotate(120.000000) translate(-33.198455, -71.683664) translate(13.698455, 52.183664)">
                        <ellipse id="Oval-2-Copy-7" cx="19.389232" cy="19.5279276" rx="19.389232" ry="19.4348063"></ellipse>
                    </g>
                </g>
                <path d="M196.859568,95.6666667 L173.847809,95.6666667" id="Line" stroke="#384248" stroke-width="8" stroke-linecap="square"></path>
                <path d="M214.908093,123.666667 L173.847809,123.666667" id="Line-Copy" stroke="#384248" stroke-width="8" stroke-linecap="square"></path>
                <path d="M237.46875,152.666667 L173.847809,152.666667" id="Line-Copy-2" stroke="#384248" stroke-width="8" stroke-linecap="square"></path>
            </g>
        </g>
    </g>
</svg>