<?xml version="1.0" encoding="UTF-8"?>
<svg width="24px" height="24px" viewBox="0 0 24 24" version="1.1" xmlns="http://www.w3.org/2000/svg" xmlns:xlink="http://www.w3.org/1999/xlink">
    <g id="picture" fill="#384248">
        <path d="M19.7777778,4.22222222 L19.7777778,19.7777778 L4.22222222,19.7777778 L4.22222222,4.22222222 L19.7777778,4.22222222 L19.7777778,4.22222222 Z M19.7777778,2 L4.22222222,2 C3,2 2,3 2,4.22222222 L2,19.7777778 C2,21 3,22 4.22222222,22 L19.7777778,22 C21,22 22,21 22,19.7777778 L22,4.22222222 C22,3 21,2 19.7777778,2 Z M14.3777778,11.8444444 L11.0444444,16.1444444 L8.66666667,13.2666667 L5.33333333,17.5555556 L18.6666667,17.5555556 L14.3777778,11.8444444 Z"></path>
    </g>
</svg>