<?xml version="1.0" encoding="UTF-8"?>
<svg width="24px" height="24px" viewBox="0 0 24 24" version="1.1" xmlns="http://www.w3.org/2000/svg" xmlns:xlink="http://www.w3.org/1999/xlink">
    <g id="section" fill="#384248">
        <path d="M19.7777778,2 L4.22222222,2 C3,2 2,3 2,4.22222222 L2,19.7777778 C2,21 2.98888889,22 4.22222222,22 L19.7777778,22 C21,22 22,21 22,19.7777778 L22,4.22222222 C22,3 21,2 19.7777778,2 Z M19.7777778,19.7777778 L4.22222222,19.7777778 L4.22222222,16.4444444 L8.17777778,16.4444444 C8.94444444,17.7666667 10.3666667,18.6666667 12.0111111,18.6666667 C13.6555556,18.6666667 15.0666667,17.7666667 15.8444444,16.4444444 L19.7777778,16.4444444 L19.7777778,19.7777778 Z M19.7777778,14.2222222 L14.2333333,14.2222222 C14.2333333,15.4444444 13.2333333,16.4444444 12.0111111,16.4444444 C10.7888889,16.4444444 9.78888889,15.4444444 9.78888889,14.2222222 L4.22222222,14.2222222 L4.22222222,4.22222222 L19.7777778,4.22222222 L19.7777778,14.2222222 Z"></path>
    </g>
</svg>