<svg width="243" height="243" viewBox="0 0 243 243" xmlns="http://www.w3.org/2000/svg"><title>Container D</title><g fill="#384248" fill-rule="evenodd"><ellipse cx="121.5" cy="223.085" rx="19.536" ry="19.536"/><circle cx="121.5" cy="19.915" r="19.536"/><path d="M121.5 228.946c59.34 0 107.446-48.105 107.446-107.446 0-59.34-48.105-107.446-107.446-107.446-59.34 0-107.446 48.105-107.446 107.446 0 59.34 48.105 107.446 107.446 107.446zm0-9.768c-53.946 0-97.678-43.732-97.678-97.678S67.554 23.822 121.5 23.822s97.678 43.732 97.678 97.678-43.732 97.678-97.678 97.678z"/><ellipse transform="rotate(150 70.708 33.525)" cx="70.708" cy="33.525" rx="19.536" ry="19.536"/><ellipse transform="rotate(150 172.292 209.475)" cx="172.292" cy="209.475" rx="19.536" ry="19.536"/><ellipse transform="rotate(90 19.915 121.5)" cx="19.915" cy="121.5" rx="19.536" ry="19.536"/><ellipse transform="rotate(90 223.085 121.5)" cx="223.085" cy="121.5" rx="19.536" ry="19.536"/><ellipse transform="rotate(120 33.525 70.708)" cx="33.525" cy="70.708" rx="19.536" ry="19.536"/><ellipse transform="rotate(120 209.475 172.292)" cx="209.475" cy="172.292" rx="19.536" ry="19.536"/><ellipse transform="rotate(60 33.525 172.292)" cx="33.525" cy="172.292" rx="19.536" ry="19.536"/><ellipse transform="rotate(60 209.475 70.708)" cx="209.475" cy="70.708" rx="19.536" ry="19.536"/><ellipse transform="rotate(30 70.708 209.475)" cx="70.708" cy="209.475" rx="19.536" ry="19.536"/><ellipse transform="rotate(30 172.292 33.525)" cx="172.292" cy="33.525" rx="19.536" ry="19.536"/></g></svg>