<?xml version="1.0" encoding="UTF-8" standalone="no"?>
<svg width="243px" height="243px" viewBox="0 0 243 243" version="1.1" xmlns="http://www.w3.org/2000/svg" xmlns:xlink="http://www.w3.org/1999/xlink">
    <!-- Generator: Sketch 41 (35326) - http://www.bohemiancoding.com/sketch -->
    <title>Container D</title>
    <desc>Created with Sketch.</desc>
    <defs></defs>
    <g id="Page-1" stroke="none" stroke-width="1" fill="none" fill-rule="evenodd">
        <g id="Artboard" transform="translate(-6.000000, -7.000000)" fill="#384248">
            <g id="Container-D" transform="translate(6.000000, 7.000000)">
                <ellipse id="Oval-2-Copy-7" cx="121.5" cy="223.084903" rx="19.5355697" ry="19.5355697"></ellipse>
                <circle id="Oval-2-Copy-8" cx="121.5" cy="19.9150972" r="19.5355697"></circle>
                <path d="M121.5,228.945633 C180.840585,228.945633 228.945633,180.840585 228.945633,121.5 C228.945633,62.1594153 180.840585,14.0543667 121.5,14.0543667 C62.1594153,14.0543667 14.0543667,62.1594153 14.0543667,121.5 C14.0543667,180.840585 62.1594153,228.945633 121.5,228.945633 Z M121.5,219.177848 C67.5540139,219.177848 23.8221515,175.445986 23.8221515,121.5 C23.8221515,67.5540139 67.5540139,23.8221515 121.5,23.8221515 C175.445986,23.8221515 219.177848,67.5540139 219.177848,121.5 C219.177848,175.445986 175.445986,219.177848 121.5,219.177848 Z" id="Oval-Copy"></path>
                <ellipse id="Oval-2-Copy-7" transform="translate(70.707549, 33.524894) rotate(150.000000) translate(-70.707549, -33.524894) " cx="70.7075486" cy="33.5248935" rx="19.5355697" ry="19.5355697"></ellipse>
                <ellipse id="Oval-2-Copy-8" transform="translate(172.292451, 209.475106) rotate(150.000000) translate(-172.292451, -209.475106) " cx="172.292451" cy="209.475106" rx="19.5355697" ry="19.5355697"></ellipse>
                <ellipse id="Oval-2-Copy-7" transform="translate(19.915097, 121.500000) rotate(90.000000) translate(-19.915097, -121.500000) " cx="19.9150972" cy="121.5" rx="19.5355697" ry="19.5355697"></ellipse>
                <ellipse id="Oval-2-Copy-8" transform="translate(223.084903, 121.500000) rotate(90.000000) translate(-223.084903, -121.500000) " cx="223.084903" cy="121.5" rx="19.5355697" ry="19.5355697"></ellipse>
                <ellipse id="Oval-2-Copy-7" transform="translate(33.524894, 70.707549) rotate(120.000000) translate(-33.524894, -70.707549) " cx="33.5248935" cy="70.7075486" rx="19.5355697" ry="19.5355697"></ellipse>
                <ellipse id="Oval-2-Copy-8" transform="translate(209.475106, 172.292451) rotate(120.000000) translate(-209.475106, -172.292451) " cx="209.475106" cy="172.292451" rx="19.5355697" ry="19.5355697"></ellipse>
                <ellipse id="Oval-2-Copy-7" transform="translate(33.524894, 172.292451) rotate(60.000000) translate(-33.524894, -172.292451) " cx="33.5248935" cy="172.292451" rx="19.5355697" ry="19.5355697"></ellipse>
                <ellipse id="Oval-2-Copy-8" transform="translate(209.475106, 70.707549) rotate(60.000000) translate(-209.475106, -70.707549) " cx="209.475106" cy="70.7075486" rx="19.5355697" ry="19.5355697"></ellipse>
                <ellipse id="Oval-2-Copy-7" transform="translate(70.707549, 209.475106) rotate(30.000000) translate(-70.707549, -209.475106) " cx="70.7075486" cy="209.475106" rx="19.5355697" ry="19.5355697"></ellipse>
                <ellipse id="Oval-2-Copy-8" transform="translate(172.292451, 33.524894) rotate(30.000000) translate(-172.292451, -33.524894) " cx="172.292451" cy="33.5248935" rx="19.5355697" ry="19.5355697"></ellipse>
            </g>
        </g>
    </g>
</svg>