<?xml version="1.0" encoding="UTF-8"?>
<svg width="24px" height="24px" viewBox="0 0 24 24" version="1.1" xmlns="http://www.w3.org/2000/svg" xmlns:xlink="http://www.w3.org/1999/xlink">
    <g id="workspace" fill="#384248">
        <path d="M19.7777778,2 L4.22222222,2 C3,2 2,3 2,4.22222222 L2,12 C2,13.2222222 3,14.2222222 4.22222222,14.2222222 L19.7777778,14.2222222 C21,14.2222222 22,13.2222222 22,12 L22,4.22222222 C22,3 21,2 19.7777778,2 Z M4.22222222,9.77777778 L7.7,9.77777778 C7.93333333,10.6444444 8.44444444,11.4111111 9.11111111,12 L4.22222222,12 L4.22222222,9.77777778 Z M19.7777778,12 L14.8888889,12 C15.5555556,11.4111111 16.0666667,10.6444444 16.3,9.77777778 L19.7777778,9.77777778 L19.7777778,12 Z M19.7777778,7.55555556 L14.2222222,7.55555556 L14.2222222,8.66666667 C14.2222222,9.85555556 13.1888889,10.8888889 12,10.8888889 C10.8111111,10.8888889 9.77777778,9.85555556 9.77777778,8.66666667 L9.77777778,7.55555556 L4.22222222,7.55555556 L4.22222222,4.22222222 L19.7777778,4.22222222 L19.7777778,7.55555556 Z M17.5555556,15.3333333 L14.2222222,15.3333333 L14.2222222,16.4444444 C14.2222222,16.9666667 14.0111111,17.4444444 13.6888889,17.8333333 C13.2777778,18.3333333 12.6666667,18.6666667 12,18.6666667 C11.3333333,18.6666667 10.7222222,18.3333333 10.3111111,17.8333333 C9.98888889,17.4444444 9.77777778,16.9666667 9.77777778,16.4444444 L9.77777778,15.3333333 L2,15.3333333 L2,19.7777778 C2,21 3,22 4.22222222,22 L19.7777778,22 C21,22 22,21 22,19.7777778 L22,15.3333333 L17.5555556,15.3333333 Z M4.22222222,17.5555556 L7.7,17.5555556 C7.72222222,17.6555556 7.76666667,17.7444444 7.8,17.8333333 C8.06666667,18.5888889 8.52222222,19.2555556 9.11111111,19.7777778 L4.22222222,19.7777778 L4.22222222,17.5555556 Z M19.7777778,19.7777778 L14.8888889,19.7777778 C15.4888889,19.2555556 15.9444444,18.5888889 16.2,17.8333333 C16.2333333,17.7444444 16.2777778,17.6555556 16.3,17.5555556 L19.7777778,17.5555556 L19.7777778,19.7777778 Z"></path>
    </g>
</svg>