<?xml version="1.0" standalone="no"?>
<!DOCTYPE svg PUBLIC "-//W3C//DTD SVG 20010904//EN"
 "http://www.w3.org/TR/2001/REC-SVG-20010904/DTD/svg10.dtd">
<svg version="1.0" xmlns="http://www.w3.org/2000/svg"
 width="451.000000pt" height="451.000000pt" viewBox="0 0 451.000000 451.000000"
 preserveAspectRatio="xMidYMid meet">
<metadata>
Created by potrace 1.11, written by Peter Selinger 2001-2013
</metadata>
<g transform="translate(0.000000,451.000000) scale(0.100000,-0.100000)"
fill="#000000" stroke="none">
<path d="M649 3860 c-1 -3 -2 -150 -3 -328 l-1 -322 472 -472 c260 -260 473
-476 473 -479 0 -4 -213 -220 -473 -480 l-473 -474 1 -325 0 -325 328 -1 327
-2 476 476 476 475 476 -476 477 -475 325 1 325 2 1 325 2 325 -476 477 -475
477 475 475 476 476 -2 328 -1 327 -325 0 -325 1 -474 -473 c-260 -260 -476
-473 -480 -473 -3 0 -219 213 -478 472 l-473 473 -325 0 c-179 0 -326 -2 -326
-5z"/>
</g>
</svg>
